<svg width="30" height="30" viewBox="0 0 30 30" fill="none" xmlns="http://www.w3.org/2000/svg">
<path d="M12.8294 25.658C15.6759 25.6574 18.4404 24.7045 20.6826 22.951L27.7324 30.0007L30 27.7331L22.9502 20.6834C24.7047 18.4409 25.6582 15.6758 25.6588 12.8286C25.6588 5.75475 19.9032 -0.000854492 12.8294 -0.000854492C5.7556 -0.000854492 0 5.75475 0 12.8286C0 19.9024 5.7556 25.658 12.8294 25.658ZM12.8294 3.2065C18.136 3.2065 22.4515 7.522 22.4515 12.8286C22.4515 18.1351 18.136 22.4506 12.8294 22.4506C7.52285 22.4506 3.20736 18.1351 3.20736 12.8286C3.20736 7.522 7.52285 3.2065 12.8294 3.2065Z" fill="black"/>
<path d="M15.0935 10.5609C15.7013 11.1703 16.0365 11.9754 16.0365 12.8285H19.2439C19.2453 11.9857 19.0796 11.1509 18.7565 10.3725C18.4333 9.59401 17.9591 8.88735 17.3611 8.29331C14.9332 5.86855 10.7235 5.86855 8.29715 8.29331L10.5615 10.5641C11.7803 9.34853 13.8812 9.35174 15.0935 10.5609Z" fill="black"/>
</svg>
